<?xml version="1.0" standalone="no"?>
<svg xmlns:xlink="http://www.w3.org/1999/xlink" id="wave" style="transform:rotate(0deg); transition: 0.3s" viewBox="0 0 1440 240" version="1.1" xmlns="http://www.w3.org/2000/svg"><defs><linearGradient id="sw-gradient-0" x1="0" x2="0" y1="1" y2="0"><stop stop-color="rgba(255, 255, 255, 1)" offset="0%"/><stop stop-color="rgba(255, 255, 255, 1)" offset="100%"/></linearGradient></defs><path style="transform:translate(0, 0px); opacity:1" fill="url(#sw-gradient-0)" d="M0,120L120,108C240,96,480,72,720,84C960,96,1200,144,1440,152C1680,160,1920,128,2160,104C2400,80,2640,64,2880,48C3120,32,3360,16,3600,12C3840,8,4080,16,4320,40C4560,64,4800,104,5040,116C5280,128,5520,112,5760,112C6000,112,6240,128,6480,144C6720,160,6960,176,7200,180C7440,184,7680,176,7920,152C8160,128,8400,88,8640,88C8880,88,9120,128,9360,148C9600,168,9840,168,10080,172C10320,176,10560,184,10800,180C11040,176,11280,160,11520,136C11760,112,12000,80,12240,92C12480,104,12720,160,12960,152C13200,144,13440,72,13680,56C13920,40,14160,80,14400,80C14640,80,14880,40,15120,44C15360,48,15600,96,15840,132C16080,168,16320,192,16560,180C16800,168,17040,120,17160,96L17280,72L17280,240L17160,240C17040,240,16800,240,16560,240C16320,240,16080,240,15840,240C15600,240,15360,240,15120,240C14880,240,14640,240,14400,240C14160,240,13920,240,13680,240C13440,240,13200,240,12960,240C12720,240,12480,240,12240,240C12000,240,11760,240,11520,240C11280,240,11040,240,10800,240C10560,240,10320,240,10080,240C9840,240,9600,240,9360,240C9120,240,8880,240,8640,240C8400,240,8160,240,7920,240C7680,240,7440,240,7200,240C6960,240,6720,240,6480,240C6240,240,6000,240,5760,240C5520,240,5280,240,5040,240C4800,240,4560,240,4320,240C4080,240,3840,240,3600,240C3360,240,3120,240,2880,240C2640,240,2400,240,2160,240C1920,240,1680,240,1440,240C1200,240,960,240,720,240C480,240,240,240,120,240L0,240Z"/></svg>